# xmcd
#
# Track frame offsets: 
#        150
#        16170
#        41414
#        70913
#        86801
#        102999
#        114483
#        136589
#        171140
#        188305
#        215587
#        250763
#        313552
#
# Disc length: 4633 seconds
#
# Revision: 3
# Processed by: cddbd v1.5.2PL0 Copyright (c) Steve Scherf et al.
# Submitted via: ExactAudioCopy v0.99pb4
#
DISCID=a212170d
DTITLE=Various Artist - Blue Note Trip 4 - CD01 - Lookin' Back
DYEAR=2005
DGENRE=Jazz
TTITLE0=Bobbi Humphrey - You Make Me Feel So Good
TTITLE1=Donald Byed - Think Twice
TTITLE2=Bobby Hutcherson - YuYo
TTITLE3=Horace Silver -  I've Had A Little Talk
TTITLE4=Horace Parlan - Congalegra
TTITLE5=James Moody And His Bop Men With Art Blakey - Tin Tin Deo
TTITLE6=Kenny Dorham Octet - Afrodisia
TTITLE7=Lee Morgan - Afreaka
TTITLE8=Nicola Conte - A Time For Spring
TTITLE9=Sam Rivers - Beatrice
TTITLE10=Herbie Hancock - Maiden Voyage
TTITLE11=Freddie Hubbard - Blue Spirits
TTITLE12=DATA
EXTD=YEAR: 2005
EXTT0=
EXTT1=
EXTT2=
EXTT3=
EXTT4=
EXTT5=
EXTT6=
EXTT7=
EXTT8=
EXTT9=
EXTT10=
EXTT11=
EXTT12=
PLAYORDER=
